<svg xmlns="http://www.w3.org/2000/svg" xmlns:xlink="http://www.w3.org/1999/xlink" width="1200" zoomAndPan="magnify" viewBox="0 0 900 299.999988" height="400" preserveAspectRatio="xMidYMid meet" version="1.0"><defs><g/><clipPath id="25ba021cec"><path d="M 559.871094 130.230469 L 639.679688 130.230469 L 639.679688 214.714844 L 559.871094 214.714844 Z M 559.871094 130.230469 " clip-rule="nonzero"/></clipPath><clipPath id="5b3be0b86a"><path d="M 599.777344 130.230469 C 577.738281 130.230469 559.871094 149.109375 559.871094 172.398438 C 559.871094 195.6875 577.738281 214.566406 599.777344 214.566406 C 621.8125 214.566406 639.679688 195.6875 639.679688 172.398438 C 639.679688 149.109375 621.8125 130.230469 599.777344 130.230469 Z M 599.777344 130.230469 " clip-rule="nonzero"/></clipPath><clipPath id="216c7cde97"><path d="M 564.175781 136.796875 L 635.886719 136.796875 L 635.886719 208.507812 L 564.175781 208.507812 Z M 564.175781 136.796875 " clip-rule="nonzero"/></clipPath></defs><g fill="#000000" fill-opacity="1"><g transform="translate(22.506223, 226.181917)"><g><path d="M 18.890625 -107.65625 L 18.890625 -130.53125 C 19.023438 -146.625 22.800781 -159.492188 30.21875 -169.140625 C 37.632812 -178.796875 47.914062 -183.625 61.0625 -183.625 C 66.664062 -183.625 72.019531 -182.816406 77.125 -181.203125 C 82.226562 -179.597656 85.898438 -177.957031 88.140625 -176.28125 L 91.703125 -173.96875 L 78.703125 -147.734375 C 75.335938 -149.691406 71.628906 -150.671875 67.578125 -150.671875 C 62.960938 -150.671875 59.882812 -149.097656 58.34375 -145.953125 C 56.800781 -142.804688 56.03125 -137.316406 56.03125 -129.484375 L 56.03125 -107.65625 L 80.796875 -107.65625 L 80.796875 -79.328125 L 56.03125 -79.328125 L 56.03125 0 L 18.890625 0 L 18.890625 -79.328125 L 3.359375 -79.328125 L 3.359375 -107.65625 Z M 18.890625 -107.65625 "/></g></g></g><g fill="#000000" fill-opacity="1"><g transform="translate(81.45673, 226.181917)"><g><path d="M 121.515625 -48.6875 L 43.4375 -48.6875 C 43.4375 -41.132812 45.882812 -35.535156 50.78125 -31.890625 C 55.675781 -28.253906 60.992188 -26.4375 66.734375 -26.4375 C 72.753906 -26.4375 77.507812 -27.238281 81 -28.84375 C 84.5 -30.457031 88.488281 -33.644531 92.96875 -38.40625 L 119.828125 -24.96875 C 108.640625 -6.226562 90.03125 3.140625 64 3.140625 C 47.769531 3.140625 33.847656 -2.414062 22.234375 -13.53125 C 10.628906 -24.65625 4.828125 -38.050781 4.828125 -53.71875 C 4.828125 -69.394531 10.628906 -82.828125 22.234375 -94.015625 C 33.847656 -105.210938 47.769531 -110.8125 64 -110.8125 C 81.070312 -110.8125 94.957031 -105.878906 105.65625 -96.015625 C 116.363281 -86.148438 121.71875 -72.050781 121.71875 -53.71875 C 121.71875 -51.207031 121.648438 -49.53125 121.515625 -48.6875 Z M 44.484375 -69.25 L 85.40625 -69.25 C 84.570312 -74.84375 82.367188 -79.144531 78.796875 -82.15625 C 75.234375 -85.164062 70.65625 -86.671875 65.0625 -86.671875 C 58.90625 -86.671875 54.003906 -85.0625 50.359375 -81.84375 C 46.722656 -78.625 44.765625 -74.425781 44.484375 -69.25 Z M 44.484375 -69.25 "/></g></g></g><g fill="#000000" fill-opacity="1"><g transform="translate(188.243644, 226.181917)"><g><path d="M 121.515625 -48.6875 L 43.4375 -48.6875 C 43.4375 -41.132812 45.882812 -35.535156 50.78125 -31.890625 C 55.675781 -28.253906 60.992188 -26.4375 66.734375 -26.4375 C 72.753906 -26.4375 77.507812 -27.238281 81 -28.84375 C 84.5 -30.457031 88.488281 -33.644531 92.96875 -38.40625 L 119.828125 -24.96875 C 108.640625 -6.226562 90.03125 3.140625 64 3.140625 C 47.769531 3.140625 33.847656 -2.414062 22.234375 -13.53125 C 10.628906 -24.65625 4.828125 -38.050781 4.828125 -53.71875 C 4.828125 -69.394531 10.628906 -82.828125 22.234375 -94.015625 C 33.847656 -105.210938 47.769531 -110.8125 64 -110.8125 C 81.070312 -110.8125 94.957031 -105.878906 105.65625 -96.015625 C 116.363281 -86.148438 121.71875 -72.050781 121.71875 -53.71875 C 121.71875 -51.207031 121.648438 -49.53125 121.515625 -48.6875 Z M 44.484375 -69.25 L 85.40625 -69.25 C 84.570312 -74.84375 82.367188 -79.144531 78.796875 -82.15625 C 75.234375 -85.164062 70.65625 -86.671875 65.0625 -86.671875 C 58.90625 -86.671875 54.003906 -85.0625 50.359375 -81.84375 C 46.722656 -78.625 44.765625 -74.425781 44.484375 -69.25 Z M 44.484375 -69.25 "/></g></g></g><g fill="#000000" fill-opacity="1"><g transform="translate(295.030559, 226.181917)"><g><path d="M 19.9375 -13.328125 C 9.863281 -24.304688 4.828125 -37.769531 4.828125 -53.71875 C 4.828125 -69.664062 9.863281 -83.164062 19.9375 -94.21875 C 30.007812 -105.28125 42.8125 -110.8125 58.34375 -110.8125 C 72.613281 -110.8125 84.363281 -106.332031 93.59375 -97.375 L 93.59375 -180.484375 L 130.75 -180.484375 L 130.75 0 L 94.015625 0 L 94.015625 -12.171875 L 93.59375 -12.171875 C 84.363281 -1.960938 72.613281 3.140625 58.34375 3.140625 C 42.8125 3.140625 30.007812 -2.347656 19.9375 -13.328125 Z M 51.515625 -71.96875 C 46.691406 -67.21875 44.28125 -61.132812 44.28125 -53.71875 C 44.28125 -46.300781 46.585938 -40.25 51.203125 -35.5625 C 55.816406 -30.882812 61.90625 -28.546875 69.46875 -28.546875 C 76.738281 -28.546875 82.71875 -30.921875 87.40625 -35.671875 C 92.09375 -40.429688 94.4375 -46.445312 94.4375 -53.71875 C 94.4375 -61.132812 92.019531 -67.21875 87.1875 -71.96875 C 82.363281 -76.726562 76.457031 -79.109375 69.46875 -79.109375 C 62.332031 -79.109375 56.347656 -76.726562 51.515625 -71.96875 Z M 51.515625 -71.96875 "/></g></g></g><g fill="#000000" fill-opacity="1"><g transform="translate(418.60219, 226.181917)"><g><path d="M 123.390625 -94.21875 C 133.460938 -83.164062 138.5 -69.664062 138.5 -53.71875 C 138.5 -37.769531 133.460938 -24.304688 123.390625 -13.328125 C 113.316406 -2.347656 100.519531 3.140625 85 3.140625 C 70.726562 3.140625 58.972656 -1.960938 49.734375 -12.171875 L 49.3125 -12.171875 L 49.3125 0 L 12.59375 0 L 12.59375 -180.484375 L 49.734375 -180.484375 L 49.734375 -97.375 C 58.972656 -106.332031 70.726562 -110.8125 85 -110.8125 C 100.519531 -110.8125 113.316406 -105.28125 123.390625 -94.21875 Z M 92.125 -35.5625 C 96.738281 -40.25 99.046875 -46.300781 99.046875 -53.71875 C 99.046875 -61.132812 96.632812 -67.21875 91.8125 -71.96875 C 86.988281 -76.726562 81.007812 -79.109375 73.875 -79.109375 C 66.875 -79.109375 60.957031 -76.726562 56.125 -71.96875 C 51.300781 -67.21875 48.890625 -61.132812 48.890625 -53.71875 C 48.890625 -46.445312 51.234375 -40.429688 55.921875 -35.671875 C 60.609375 -30.921875 66.59375 -28.546875 73.875 -28.546875 C 81.425781 -28.546875 87.507812 -30.882812 92.125 -35.5625 Z M 92.125 -35.5625 "/></g></g></g><g fill="#000000" fill-opacity="1"><g transform="translate(542.173842, 226.181917)"><g><path d="M 19.9375 -13.328125 C 9.863281 -24.304688 4.828125 -37.769531 4.828125 -53.71875 C 4.828125 -69.664062 9.863281 -83.164062 19.9375 -94.21875 C 30.007812 -105.28125 42.8125 -110.8125 58.34375 -110.8125 C 72.613281 -110.8125 84.363281 -106.332031 93.59375 -97.375 L 93.59375 -107.65625 L 130.75 -107.65625 L 130.75 0 L 94.015625 0 L 94.015625 -12.171875 L 93.59375 -12.171875 C 84.363281 -1.960938 72.613281 3.140625 58.34375 3.140625 C 42.8125 3.140625 30.007812 -2.347656 19.9375 -13.328125 Z M 51.515625 -71.96875 C 46.691406 -67.21875 44.28125 -61.132812 44.28125 -53.71875 C 44.28125 -46.300781 46.585938 -40.25 51.203125 -35.5625 C 55.816406 -30.882812 61.90625 -28.546875 69.46875 -28.546875 C 76.738281 -28.546875 82.71875 -30.921875 87.40625 -35.671875 C 92.09375 -40.429688 94.4375 -46.445312 94.4375 -53.71875 C 94.4375 -61.132812 92.019531 -67.21875 87.1875 -71.96875 C 82.363281 -76.726562 76.457031 -79.109375 69.46875 -79.109375 C 62.332031 -79.109375 56.347656 -76.726562 51.515625 -71.96875 Z M 51.515625 -71.96875 "/></g></g></g><g fill="#000000" fill-opacity="1"><g transform="translate(665.745448, 226.181917)"><g><path d="M 69.890625 -80.375 C 62.890625 -80.375 56.867188 -77.785156 51.828125 -72.609375 C 46.796875 -67.429688 44.28125 -61.207031 44.28125 -53.9375 C 44.28125 -46.519531 46.796875 -40.222656 51.828125 -35.046875 C 56.867188 -29.867188 62.890625 -27.28125 69.890625 -27.28125 C 73.242188 -27.28125 76.421875 -27.695312 79.421875 -28.53125 C 82.429688 -29.375 84.640625 -30.21875 86.046875 -31.0625 L 87.9375 -32.3125 L 100.515625 -6.5 C 99.535156 -5.800781 98.171875 -4.925781 96.421875 -3.875 C 94.679688 -2.832031 90.695312 -1.40625 84.46875 0.40625 C 78.238281 2.226562 71.554688 3.140625 64.421875 3.140625 C 48.617188 3.140625 34.734375 -2.414062 22.765625 -13.53125 C 10.804688 -24.65625 4.828125 -37.984375 4.828125 -53.515625 C 4.828125 -69.179688 10.804688 -82.644531 22.765625 -93.90625 C 34.734375 -105.175781 48.617188 -110.8125 64.421875 -110.8125 C 71.554688 -110.8125 78.128906 -109.96875 84.140625 -108.28125 C 90.160156 -106.601562 94.429688 -104.925781 96.953125 -103.25 L 100.515625 -100.734375 L 87.9375 -75.34375 C 83.3125 -78.695312 77.296875 -80.375 69.890625 -80.375 Z M 69.890625 -80.375 "/></g></g></g><g fill="#000000" fill-opacity="1"><g transform="translate(749.033811, 226.181917)"><g><path d="M 135.5625 -107.65625 L 84.359375 -56.25 L 140.609375 0 L 92.765625 0 L 49.734375 -43.015625 L 49.734375 0 L 12.59375 0 L 12.59375 -180.484375 L 49.734375 -180.484375 L 49.734375 -70.09375 L 87.296875 -107.65625 Z M 135.5625 -107.65625 "/></g></g></g><g clip-path="url(#25ba021cec)"><g clip-path="url(#5b3be0b86a)"><path fill="#f1efe7" d="M 559.871094 130.230469 L 639.679688 130.230469 L 639.679688 214.714844 L 559.871094 214.714844 Z M 559.871094 130.230469 " fill-opacity="1" fill-rule="nonzero"/></g></g><g clip-path="url(#216c7cde97)"><path fill="#000000" d="M 596.140625 138.742188 C 595.71875 138.320312 595.71875 137.632812 596.140625 137.210938 C 596.566406 136.789062 597.25 136.789062 597.671875 137.210938 L 600.886719 140.4375 C 601.214844 140.875 601.171875 141.480469 600.78125 141.867188 L 597.671875 144.972656 C 597.25 145.394531 596.566406 145.394531 596.140625 144.972656 C 595.71875 144.550781 595.71875 143.863281 596.140625 143.441406 L 597 142.582031 C 597.097656 142.484375 597.019531 142.320312 596.882812 142.335938 C 583.820312 143.671875 573.03125 153.320312 570.253906 166.136719 C 570.125 166.722656 569.550781 167.09375 568.964844 166.964844 C 568.382812 166.839844 568.011719 166.265625 568.136719 165.679688 C 571.148438 151.773438 582.976562 141.355469 597.191406 140.128906 C 597.316406 140.121094 597.371094 139.972656 597.28125 139.882812 Z M 581.335938 175.929688 L 581.335938 193.496094 C 581.335938 193.625 581.496094 193.6875 581.585938 193.597656 L 583.816406 191.316406 C 585.265625 189.832031 587.097656 189.058594 589.167969 189.058594 L 603.886719 189.058594 C 605.996094 189.058594 607.726562 187.324219 607.726562 185.214844 L 607.726562 175.929688 C 607.726562 173.820312 605.996094 172.089844 603.886719 172.089844 L 585.179688 172.089844 C 583.070312 172.089844 581.335938 173.820312 581.335938 175.929688 Z M 598.058594 163.875 L 598.058594 169.796875 C 598.058594 169.878906 598.125 169.941406 598.203125 169.941406 L 603.886719 169.941406 C 607.078125 169.941406 609.710938 172.472656 609.867188 175.632812 C 609.871094 175.710938 609.933594 175.769531 610.011719 175.769531 L 614.914062 175.769531 C 616.828125 175.769531 618.527344 176.488281 619.871094 177.859375 L 621.722656 179.757812 C 621.816406 179.851562 621.972656 179.789062 621.972656 179.65625 L 621.972656 163.875 C 621.972656 162 620.433594 160.460938 618.554688 160.460938 L 601.472656 160.460938 C 599.597656 160.460938 598.058594 162 598.058594 163.875 Z M 617.324219 166.371094 L 605.167969 166.371094 C 604.578125 166.371094 604.097656 165.890625 604.097656 165.296875 C 604.097656 164.703125 604.578125 164.222656 605.167969 164.222656 L 617.324219 164.222656 C 617.917969 164.222656 618.398438 164.703125 618.398438 165.296875 C 618.398438 165.890625 617.917969 166.371094 617.324219 166.371094 Z M 611.933594 169.058594 L 617.324219 169.058594 C 617.917969 169.058594 618.398438 169.539062 618.398438 170.132812 C 618.398438 170.722656 617.917969 171.203125 617.324219 171.203125 L 611.933594 171.203125 C 611.339844 171.203125 610.859375 170.722656 610.859375 170.132812 C 610.859375 169.539062 611.339844 169.058594 611.933594 169.058594 Z M 597.542969 159.945312 C 598.550781 158.9375 599.941406 158.3125 601.472656 158.3125 L 606.566406 158.3125 C 606.644531 158.3125 606.707031 158.25 606.707031 158.167969 L 606.707031 155.296875 C 606.707031 153.816406 605.492188 152.601562 604.015625 152.601562 L 592.734375 152.601562 C 591.082031 152.601562 589.609375 151.980469 588.449219 150.796875 L 587.230469 149.546875 C 587.140625 149.453125 586.980469 149.519531 586.980469 149.648438 L 586.980469 162.414062 C 586.980469 163.894531 588.195312 165.109375 589.675781 165.109375 L 595.765625 165.109375 C 595.847656 165.109375 595.910156 165.042969 595.910156 164.964844 L 595.910156 163.875 C 595.910156 162.34375 596.535156 160.953125 597.542969 159.945312 Z M 597.613281 154.894531 L 590.429688 154.894531 C 589.835938 154.894531 589.355469 155.375 589.355469 155.96875 C 589.355469 156.5625 589.835938 157.042969 590.429688 157.042969 L 597.613281 157.042969 C 598.207031 157.042969 598.6875 156.5625 598.6875 155.96875 C 598.6875 155.375 598.207031 154.894531 597.613281 154.894531 Z M 590.429688 159.625 C 589.835938 159.625 589.355469 160.105469 589.355469 160.699219 C 589.355469 161.292969 589.835938 161.773438 590.429688 161.773438 L 593.617188 161.773438 C 594.207031 161.773438 594.6875 161.292969 594.6875 160.699219 C 594.6875 160.105469 594.207031 159.625 593.617188 159.625 Z M 586.328125 184.296875 C 586.328125 183.707031 586.808594 183.226562 587.402344 183.226562 L 594.054688 183.226562 C 594.648438 183.226562 595.128906 183.707031 595.128906 184.296875 C 595.128906 184.890625 594.648438 185.371094 594.054688 185.371094 L 587.402344 185.371094 C 586.808594 185.371094 586.328125 184.890625 586.328125 184.296875 Z M 587.402344 178.839844 C 586.808594 178.839844 586.328125 178.359375 586.328125 177.765625 C 586.328125 177.171875 586.808594 176.691406 587.402344 176.691406 L 602.402344 176.691406 C 602.996094 176.691406 603.476562 177.171875 603.476562 177.765625 C 603.476562 178.359375 602.996094 178.839844 602.402344 178.839844 Z M 566.121094 176.523438 C 565.699219 176.949219 565.011719 176.949219 564.589844 176.523438 C 564.167969 176.101562 564.167969 175.414062 564.589844 174.992188 L 567.816406 171.78125 C 568.253906 171.449219 568.859375 171.496094 569.242188 171.886719 L 572.351562 174.992188 C 572.773438 175.417969 572.773438 176.101562 572.351562 176.523438 C 571.929688 176.949219 571.242188 176.949219 570.820312 176.523438 L 569.960938 175.664062 C 569.863281 175.570312 569.699219 175.648438 569.714844 175.78125 C 571.050781 188.847656 580.699219 199.636719 593.515625 202.414062 C 594.101562 202.539062 594.472656 203.117188 594.34375 203.699219 C 594.21875 204.285156 593.644531 204.65625 593.058594 204.53125 C 579.152344 201.515625 568.730469 189.691406 567.507812 175.472656 C 567.5 175.351562 567.351562 175.296875 567.261719 175.382812 Z M 627.691406 170.296875 C 627.269531 169.871094 627.269531 169.1875 627.691406 168.761719 C 628.117188 168.339844 628.800781 168.339844 629.226562 168.761719 L 630.085938 169.621094 C 630.179688 169.71875 630.34375 169.640625 630.332031 169.507812 C 628.996094 156.441406 619.34375 145.652344 606.53125 142.875 C 605.945312 142.746094 605.574219 142.171875 605.699219 141.585938 C 605.828125 141.003906 606.402344 140.632812 606.988281 140.757812 C 620.890625 143.769531 631.3125 155.597656 632.535156 169.8125 C 632.546875 169.9375 632.695312 169.992188 632.78125 169.902344 L 633.921875 168.761719 C 634.347656 168.339844 635.03125 168.339844 635.453125 168.761719 C 635.878906 169.1875 635.878906 169.871094 635.453125 170.292969 L 632.230469 173.507812 C 631.792969 173.835938 631.1875 173.792969 630.800781 173.402344 Z M 602.371094 200.316406 C 602.792969 199.890625 603.480469 199.890625 603.902344 200.316406 C 604.328125 200.738281 604.328125 201.421875 603.902344 201.847656 L 603.042969 202.707031 C 602.949219 202.800781 603.027344 202.964844 603.160156 202.953125 C 616.226562 201.617188 627.015625 191.964844 629.792969 179.152344 C 629.917969 178.566406 630.496094 178.195312 631.078125 178.320312 C 631.664062 178.449219 632.035156 179.023438 631.910156 179.609375 C 628.894531 193.511719 617.070312 203.933594 602.851562 205.15625 C 602.730469 205.167969 602.675781 205.316406 602.761719 205.402344 L 603.902344 206.542969 C 604.328125 206.96875 604.328125 207.652344 603.902344 208.078125 C 603.480469 208.5 602.792969 208.5 602.371094 208.078125 L 599.160156 204.851562 C 598.828125 204.414062 598.875 203.808594 599.261719 203.421875 Z M 602.371094 200.316406 " fill-opacity="1" fill-rule="evenodd"/></g><g fill="#f1efe7" fill-opacity="1"><g transform="translate(75.769473, 230.451689)"><g><path d="M -41.78125 -0.5 L -52.234375 -0.5 L -52.234375 -37.234375 L -41.78125 -37.234375 L -41.78125 -24.8125 L 0 -24.8125 L 0 -12.921875 L -41.78125 -12.921875 Z M -41.78125 -0.5 "/></g></g></g><g fill="#f1efe7" fill-opacity="1"><g transform="translate(75.769473, 198.67428)"><g><path d="M -52.234375 -3.796875 L -52.234375 -22.46875 C -52.234375 -27.5 -50.890625 -31.59375 -48.203125 -34.75 C -45.523438 -37.914062 -41.695312 -39.5 -36.71875 -39.5 C -32.875 -39.5 -29.65625 -38.539062 -27.0625 -36.625 C -24.46875 -34.707031 -22.644531 -32.101562 -21.59375 -28.8125 L 0 -46.78125 L 0 -31.65625 L -20.640625 -15.703125 L 0 -15.703125 L 0 -3.796875 Z M -29.0625 -15.703125 L -29.0625 -17.09375 C -29.0625 -18.1875 -29.082031 -19.113281 -29.125 -19.875 C -29.164062 -20.632812 -29.3125 -21.5 -29.5625 -22.46875 C -29.820312 -23.445312 -30.179688 -24.226562 -30.640625 -24.8125 C -31.109375 -25.40625 -31.785156 -25.910156 -32.671875 -26.328125 C -33.554688 -26.753906 -34.628906 -26.96875 -35.890625 -26.96875 C -37.160156 -26.96875 -38.238281 -26.753906 -39.125 -26.328125 C -40.007812 -25.910156 -40.679688 -25.40625 -41.140625 -24.8125 C -41.609375 -24.226562 -41.96875 -23.445312 -42.21875 -22.46875 C -42.476562 -21.5 -42.628906 -20.632812 -42.671875 -19.875 C -42.710938 -19.113281 -42.734375 -18.1875 -42.734375 -17.09375 L -42.734375 -15.703125 Z M -29.0625 -15.703125 "/></g></g></g><g fill="#f1efe7" fill-opacity="1"><g transform="translate(75.769473, 159.300442)"><g><path d="M -52.234375 -43.9375 L -18.546875 -43.9375 C -12.128906 -43.9375 -7.273438 -42.207031 -3.984375 -38.75 C -0.691406 -35.289062 0.953125 -30.222656 0.953125 -23.546875 C 0.953125 -16.878906 -0.691406 -11.816406 -3.984375 -8.359375 C -7.273438 -4.898438 -12.128906 -3.171875 -18.546875 -3.171875 L -52.234375 -3.171875 L -52.234375 -15.0625 L -22.03125 -15.0625 C -17.8125 -15.0625 -14.878906 -15.726562 -13.234375 -17.0625 C -11.585938 -18.394531 -10.765625 -20.554688 -10.765625 -23.546875 C -10.765625 -26.546875 -11.585938 -28.707031 -13.234375 -30.03125 C -14.878906 -31.363281 -17.8125 -32.03125 -22.03125 -32.03125 L -52.234375 -32.03125 Z M -52.234375 -43.9375 "/></g></g></g><g fill="#f1efe7" fill-opacity="1"><g transform="translate(75.769473, 118.154097)"><g><path d="M -52.234375 -33.6875 L -41.78125 -33.6875 L -41.78125 -15.703125 L -31.40625 -15.703125 L -31.40625 -32.921875 L -20.953125 -32.921875 L -20.953125 -15.703125 L -10.453125 -15.703125 L -10.453125 -33.6875 L 0 -33.6875 L 0 -3.796875 L -52.234375 -3.796875 Z M -52.234375 -33.6875 "/></g></g></g><path fill="#ffffff" d="M 28 131.980469 L 31.074219 131.980469 L 31.074219 133.003906 L 28 133.003906 M 32.097656 131.980469 L 35.171875 131.980469 L 35.171875 133.003906 L 32.097656 133.003906 M 36.195312 131.980469 L 39.269531 131.980469 L 39.269531 133.003906 L 36.195312 133.003906 M 40.292969 131.980469 L 43.367188 131.980469 L 43.367188 133.003906 L 40.292969 133.003906 M 44.390625 131.980469 L 47.464844 131.980469 L 47.464844 133.003906 L 44.390625 133.003906 M 48.488281 131.980469 L 51.5625 131.980469 L 51.5625 133.003906 L 48.488281 133.003906 M 52.585938 131.980469 L 55.660156 131.980469 L 55.660156 133.003906 L 52.585938 133.003906 M 56.683594 131.980469 L 58.339844 131.980469 L 58.339844 133.003906 L 56.683594 133.003906 " fill-opacity="1" fill-rule="nonzero"/><path fill="#ffffff" d="M 28 136.285156 L 31.074219 136.285156 L 31.074219 137.308594 L 28 137.308594 M 32.097656 136.285156 L 35.171875 136.285156 L 35.171875 137.308594 L 32.097656 137.308594 M 36.195312 136.285156 L 39.269531 136.285156 L 39.269531 137.308594 L 36.195312 137.308594 M 40.292969 136.285156 L 43.367188 136.285156 L 43.367188 137.308594 L 40.292969 137.308594 M 44.390625 136.285156 L 47.464844 136.285156 L 47.464844 137.308594 L 44.390625 137.308594 M 48.488281 136.285156 L 51.5625 136.285156 L 51.5625 137.308594 L 48.488281 137.308594 M 52.585938 136.285156 L 55.660156 136.285156 L 55.660156 137.308594 L 52.585938 137.308594 M 56.683594 136.285156 L 58.339844 136.285156 L 58.339844 137.308594 L 56.683594 137.308594 " fill-opacity="1" fill-rule="nonzero"/><path fill="#ffffff" d="M 28 140.792969 L 31.074219 140.792969 L 31.074219 141.816406 L 28 141.816406 M 32.097656 140.792969 L 35.171875 140.792969 L 35.171875 141.816406 L 32.097656 141.816406 M 36.195312 140.792969 L 39.269531 140.792969 L 39.269531 141.816406 L 36.195312 141.816406 M 40.292969 140.792969 L 42.992188 140.792969 L 42.992188 141.816406 L 40.292969 141.816406 " fill-opacity="1" fill-rule="nonzero"/></svg>